<?xml version="1.0" encoding="UTF-8" standalone="no"?>
<!-- Created with Inkscape (http://www.inkscape.org/) -->

<svg
   width="177.71707mm"
   height="24.193548mm"
   id="svg2"
   version="1.1"
   inkscape:version="1.3.2 (091e20e, 2023-11-25, custom)"
   sodipodi:docname="RampmasterV4_backup.svg"
   inkscape:export-filename="RampmasterV4_backup.svg"
   inkscape:export-xdpi="96"
   inkscape:export-ydpi="96"
   xmlns:inkscape="http://www.inkscape.org/namespaces/inkscape"
   xmlns:sodipodi="http://sodipodi.sourceforge.net/DTD/sodipodi-0.dtd"
   xmlns="http://www.w3.org/2000/svg"
   xmlns:svg="http://www.w3.org/2000/svg"
   xmlns:rdf="http://www.w3.org/1999/02/22-rdf-syntax-ns#"
   xmlns:cc="http://creativecommons.org/ns#"
   xmlns:dc="http://purl.org/dc/elements/1.1/">
  <defs
     id="defs4" />
  <sodipodi:namedview
     id="base"
     pagecolor="#ffffff"
     bordercolor="#666666"
     borderopacity="1.0"
     inkscape:pageopacity="0.0"
     inkscape:pageshadow="2"
     inkscape:zoom="0.98994949"
     inkscape:cx="499.52044"
     inkscape:cy="201.52543"
     inkscape:document-units="px"
     inkscape:current-layer="g1"
     showgrid="true"
     showguides="true"
     inkscape:window-width="1920"
     inkscape:window-height="1009"
     inkscape:window-x="-8"
     inkscape:window-y="1072"
     inkscape:window-maximized="1"
     inkscape:showpageshadow="2"
     inkscape:pagecheckerboard="0"
     inkscape:deskcolor="#d1d1d1">
    <inkscape:grid
       type="xygrid"
       id="grid3048"
       originx="-63.581997"
       originy="-257.97192"
       spacingy="1"
       spacingx="1"
       units="px"
       visible="true" />
  </sodipodi:namedview>
  <metadata
     id="metadata7">
    <rdf:RDF>
      <cc:Work
         rdf:about="">
        <dc:format>image/svg+xml</dc:format>
        <dc:type
           rdf:resource="http://purl.org/dc/dcmitype/StillImage" />
        <dc:title />
      </cc:Work>
    </rdf:RDF>
  </metadata>
  <g
     inkscape:groupmode="layer"
     id="layer2"
     inkscape:label="Logo"
     transform="translate(-63.581997,-257.97192)">
    <g
       style="fill:#000000"
       id="g2"
       transform="matrix(1.8830654,0,0,1.8830654,644.88142,258.52974)"
       inkscape:export-filename="/home/rmorenp/Dropbox/Rampmaster/Logos/logoV4.png"
       inkscape:export-xdpi="90"
       inkscape:export-ydpi="90">
      <path
         id="path1"
         d="m 27,33 c -2.547,0 -4.899,-0.807 -6.84,-2.16 L 12,39 H 9 v -3 l 8.16,-8.16 v 0 L 36,9 15.486,24.291 C 15.186,23.241 15,22.146 15,21 15,14.373 38.373,0 45,0 c 3,0 3,0 3,3 0,6.627 -14.373,30 -21,30 z m 15,-4.959 c 2.202,-2.871 4.242,-6.018 6,-9.156 V 39 c 0,4.971 -4.029,9 -9,9 H 9 C 4.029,48 0,43.971 0,39 V 9 C 0,4.029 4.029,0 9,0 H 29.115 C 25.977,1.758 22.83,3.798 19.959,6 H 9 C 7.341,6 6,7.341 6,9 v 30 c 0,1.659 1.341,3 3,3 h 30 c 1.659,0 3,-1.341 3,-3 z"
         inkscape:connector-curvature="0" />
    </g>
    <a
       id="a2"
       transform="matrix(1.1629345,0,0,1.1629345,-65.41071,-18.990511)">
      <path
         style="font-size:88.546px;line-height:1.25;font-family:Lato;-inkscape-font-specification:'Lato, Normal';letter-spacing:0px;word-spacing:0px;stroke-width:0.804482"
         d="m 128.49639,268.88369 q 3.71893,0 6.5524,-0.88546 2.87774,-0.92973 4.78148,-2.56783 1.94802,-1.68237 2.92202,-3.98457 0.97401,-2.3022 0.97401,-5.09139 0,-5.66695 -3.71893,-8.54469 -3.71894,-2.87775 -11.1568,-2.87775 h -9.38588 v 23.95169 z m 29.30872,32.71775 h -7.61495 q -2.34647,0 -3.4533,-1.81519 l -16.46955,-22.66778 q -0.75265,-1.06255 -1.63811,-1.50528 -0.84118,-0.487 -2.65638,-0.487 h -6.50813 v 26.47525 h -8.54468 v -63.44321 h 17.93056 q 6.02113,0 10.40415,1.23965 4.38303,1.19537 7.2165,3.49756 2.87775,2.3022 4.25021,5.5784 1.37246,3.23193 1.37246,7.26077 0,3.36475 -1.06255,6.28677 -1.06255,2.92202 -3.09911,5.26849 -1.99228,2.30219 -4.9143,3.94029 -2.87775,1.6381 -6.5524,2.47929 1.6381,0.92973 2.83347,2.70065 z m 30.37123,-20.18849 q -5.44558,0.17709 -9.29733,0.88546 -3.80748,0.6641 -6.24249,1.77092 -2.39074,1.10683 -3.49757,2.61211 -1.06255,1.50528 -1.06255,3.36475 0,1.77092 0.57555,3.05483 0.57555,1.28392 1.54955,2.12511 1.01828,0.79691 2.34647,1.19537 1.37247,0.35418 2.92202,0.35418 2.08083,0 3.80748,-0.39845 1.72665,-0.44273 3.23193,-1.23965 1.54955,-0.79691 2.92201,-1.90374 1.41674,-1.10682 2.74493,-2.52356 z m -25.45697,-18.32902 q 3.71893,-3.58611 8.01341,-5.35703 4.29448,-1.77092 9.51869,-1.77092 3.76321,0 6.68523,1.23964 2.92201,1.23965 4.9143,3.4533 1.99228,2.21365 3.01056,5.35703 1.01828,3.14338 1.01828,6.90659 v 28.6889 h -3.49756 q -1.1511,0 -1.77092,-0.35418 -0.61983,-0.39846 -0.97401,-1.50529 l -0.88546,-4.2502 q -1.77092,1.6381 -3.45329,2.92201 -1.68238,1.23965 -3.54184,2.12511 -1.85947,0.84119 -3.98457,1.28392 -2.08083,0.487 -4.64867,0.487 -2.61211,0 -4.9143,-0.70837 -2.3022,-0.75264 -4.02884,-2.21365 -1.68238,-1.46101 -2.70066,-3.67466 -0.974,-2.25792 -0.974,-5.31276 0,-2.65638 1.46101,-5.09139 1.461,-2.47929 4.73721,-4.38303 3.2762,-1.90374 8.54469,-3.09911 5.26848,-1.23964 12.92771,-1.41674 v -3.49756 q 0,-5.22422 -2.25792,-7.8806 -2.25793,-2.70065 -6.59668,-2.70065 -2.92202,0 -4.9143,0.75264 -1.94801,0.70837 -3.40902,1.6381 -1.41674,0.88546 -2.47929,1.6381 -1.01828,0.70837 -2.03656,0.70837 -0.79691,0 -1.37246,-0.39846 -0.57555,-0.44273 -0.97401,-1.06255 z m 45.15843,38.51751 v -44.84855 h 4.73721 q 1.68237,0 2.08083,1.6381 l 0.57555,4.6044 q 2.47929,-3.05484 5.5784,-5.00285 3.09911,-1.94802 7.17222,-1.94802 4.51585,0 7.30505,2.52357 2.83347,2.52356 4.07312,6.81804 0.974,-2.43502 2.47928,-4.20594 1.54956,-1.77092 3.4533,-2.92202 1.90374,-1.15109 4.02884,-1.68237 2.16938,-0.53128 4.38303,-0.53128 3.54184,0 6.28676,1.1511 2.7892,1.10683 4.69294,3.2762 1.94801,2.16938 2.96629,5.35704 1.01828,3.14338 1.01828,7.2165 v 28.55608 h -7.92487 v -28.55608 q 0,-5.26849 -2.30219,-7.96914 -2.3022,-2.74493 -6.64095,-2.74493 -1.94801,0 -3.71893,0.70837 -1.72665,0.66409 -3.05484,1.99228 -1.32819,1.32819 -2.1251,3.36475 -0.75265,1.99229 -0.75265,4.64867 v 28.55608 h -7.92486 v -28.55608 q 0,-5.40131 -2.16938,-8.05769 -2.16938,-2.65638 -6.33104,-2.65638 -2.92202,0 -5.4013,1.59383 -2.47929,1.54955 -4.56012,4.25021 v 33.42611 z m 80.75397,-10.80261 q 2.16938,2.92202 4.73721,4.11739 2.56783,1.19537 5.75549,1.19537 6.28677,0 9.65151,-4.47157 3.36475,-4.47158 3.36475,-12.75063 0,-4.38302 -0.79691,-7.52641 -0.75264,-3.14338 -2.21365,-5.13567 -1.46101,-2.03655 -3.58612,-2.96629 -2.1251,-0.92973 -4.82575,-0.92973 -3.85175,0 -6.77377,1.77092 -2.87775,1.77092 -5.31276,5.00285 z m -0.39846,-27.09508 q 2.83347,-3.49756 6.55241,-5.62267 3.71893,-2.1251 8.50041,-2.1251 3.89602,0 7.03941,1.50528 3.14338,1.46101 5.35703,4.38303 2.21365,2.87774 3.40902,7.17222 1.19537,4.29448 1.19537,9.87288 0,4.95858 -1.32819,9.25306 -1.32819,4.25021 -3.85175,7.39359 -2.47929,3.09911 -6.10967,4.9143 -3.58611,1.77092 -8.10196,1.77092 -4.11739,0 -7.08368,-1.37246 -2.92202,-1.41674 -5.17994,-3.89602 v 19.8343 h -7.92487 v -60.03419 h 4.73721 q 1.68238,0 2.08083,1.6381 z m 42.10355,37.89769 v -44.84855 h 4.73721 q 1.68238,0 2.08083,1.6381 l 0.57555,4.6044 q 2.47929,-3.05484 5.5784,-5.00285 3.09911,-1.94802 7.17223,-1.94802 4.51584,0 7.30504,2.52357 2.83347,2.52356 4.07312,6.81804 0.974,-2.43502 2.47928,-4.20594 1.54956,-1.77092 3.4533,-2.92202 1.90374,-1.15109 4.02884,-1.68237 2.16938,-0.53128 4.38303,-0.53128 3.54184,0 6.28676,1.1511 2.7892,1.10683 4.69294,3.2762 1.94801,2.16938 2.96629,5.35704 1.01828,3.14338 1.01828,7.2165 v 28.55608 h -7.92487 v -28.55608 q 0,-5.26849 -2.30219,-7.96914 -2.3022,-2.74493 -6.64095,-2.74493 -1.94801,0 -3.71893,0.70837 -1.72665,0.66409 -3.05484,1.99228 -1.32819,1.32819 -2.1251,3.36475 -0.75265,1.99229 -0.75265,4.64867 v 28.55608 h -7.92486 v -28.55608 q 0,-5.40131 -2.16938,-8.05769 -2.16938,-2.65638 -6.33104,-2.65638 -2.92202,0 -5.4013,1.59383 -2.47929,1.54955 -4.56012,4.25021 v 33.42611 z m 97.13499,-20.18849 q -5.44557,0.17709 -9.29733,0.88546 -3.80747,0.6641 -6.24249,1.77092 -2.39074,1.10683 -3.49757,2.61211 -1.06255,1.50528 -1.06255,3.36475 0,1.77092 0.57555,3.05483 0.57555,1.28392 1.54956,2.12511 1.01828,0.79691 2.34647,1.19537 1.37246,0.35418 2.92201,0.35418 2.08083,0 3.80748,-0.39845 1.72665,-0.44273 3.23193,-1.23965 1.54956,-0.79691 2.92202,-1.90374 1.41673,-1.10682 2.74492,-2.52356 z m -25.45697,-18.32902 q 3.71893,-3.58611 8.01341,-5.35703 4.29448,-1.77092 9.5187,-1.77092 3.7632,0 6.68522,1.23964 2.92202,1.23965 4.9143,3.4533 1.99229,2.21365 3.01057,5.35703 1.01828,3.14338 1.01828,6.90659 v 28.6889 h -3.49757 q -1.1511,0 -1.77092,-0.35418 -0.61982,-0.39846 -0.97401,-1.50529 l -0.88546,-4.2502 q -1.77092,1.6381 -3.45329,2.92201 -1.68237,1.23965 -3.54184,2.12511 -1.85947,0.84119 -3.98457,1.28392 -2.08083,0.487 -4.64867,0.487 -2.6121,0 -4.9143,-0.70837 -2.30219,-0.75264 -4.02884,-2.21365 -1.68238,-1.46101 -2.70065,-3.67466 -0.97401,-2.25792 -0.97401,-5.31276 0,-2.65638 1.46101,-5.09139 1.46101,-2.47929 4.73721,-4.38303 3.2762,-1.90374 8.54469,-3.09911 5.26849,-1.23964 12.92771,-1.41674 v -3.49756 q 0,-5.22422 -2.25792,-7.8806 -2.25792,-2.70065 -6.59668,-2.70065 -2.92201,0 -4.9143,0.75264 -1.94801,0.70837 -3.40902,1.6381 -1.41674,0.88546 -2.47929,1.6381 -1.01828,0.70837 -2.03656,0.70837 -0.79691,0 -1.37246,-0.39846 -0.57555,-0.44273 -0.974,-1.06255 z m 71.27949,1.06255 q -0.53127,0.97401 -1.6381,0.97401 -0.66409,0 -1.50528,-0.487 -0.84119,-0.48701 -2.08083,-1.06256 -1.19537,-0.61982 -2.87775,-1.10682 -1.68237,-0.53128 -3.98457,-0.53128 -1.99228,0 -3.58611,0.53128 -1.59383,0.487 -2.74493,1.37246 -1.10682,0.88546 -1.72664,2.08083 -0.57555,1.1511 -0.57555,2.52356 0,1.72665 0.974,2.87775 1.01828,1.1511 2.65638,1.99228 1.6381,0.84119 3.71894,1.50529 2.08083,0.61982 4.2502,1.37246 2.21365,0.70837 4.29448,1.59383 2.08084,0.88546 3.71894,2.21365 1.6381,1.32819 2.6121,3.2762 1.01828,1.90374 1.01828,4.60439 0,3.09911 -1.10682,5.75549 -1.10683,2.61211 -3.2762,4.56012 -2.16938,1.90374 -5.31276,3.01056 -3.14339,1.10683 -7.26078,1.10683 -4.69293,0 -8.50041,-1.50528 -3.80748,-1.54956 -6.46386,-3.9403 l 1.85947,-3.01056 q 0.35418,-0.57555 0.84118,-0.88546 0.48701,-0.30992 1.23965,-0.30992 0.79691,0 1.68237,0.61983 0.88546,0.61982 2.1251,1.37246 1.28392,0.75264 3.09911,1.37246 1.8152,0.61982 4.51585,0.61982 2.3022,0 4.02884,-0.57554 1.72665,-0.61983 2.87775,-1.63811 1.1511,-1.01827 1.68237,-2.34646 0.57555,-1.32819 0.57555,-2.83348 0,-1.85946 -1.01828,-3.05483 -0.974,-1.23965 -2.6121,-2.08083 -1.63811,-0.88546 -3.76321,-1.50529 -2.08083,-0.66409 -4.29448,-1.37246 -2.16938,-0.70837 -4.29448,-1.59383 -2.08083,-0.92973 -3.71893,-2.30219 -1.6381,-1.37247 -2.65638,-3.36475 -0.97401,-2.03656 -0.97401,-4.9143 0,-2.56784 1.06255,-4.91431 1.06255,-2.39074 3.09911,-4.16166 2.03656,-1.81519 5.00285,-2.87774 2.96629,-1.06256 6.77377,-1.06256 4.4273,0 7.92487,1.41674 3.54184,1.37246 6.10967,3.80748 z m 25.98832,38.16333 q -5.31276,0 -8.19051,-2.96629 -2.83347,-2.96629 -2.83347,-8.54469 v -27.44926 h -5.4013 q -0.70837,0 -1.19537,-0.39846 -0.48701,-0.44273 -0.48701,-1.32819 v -3.14338 l 7.34932,-0.92973 1.81519,-13.85745 q 0.13282,-0.6641 0.57555,-1.06255 0.48701,-0.44273 1.23965,-0.44273 h 3.98457 v 15.45127 h 12.97198 v 5.71122 h -12.97198 v 26.91798 q 0,2.83347 1.37246,4.20594 1.37246,1.37246 3.54184,1.37246 1.23964,0 2.1251,-0.30991 0.92974,-0.35418 1.59383,-0.75264 0.6641,-0.39846 1.10683,-0.70837 0.487,-0.35418 0.84118,-0.35418 0.61982,0 1.10683,0.75264 l 2.30219,3.7632 q -2.03655,1.90374 -4.9143,3.01057 -2.87774,1.06255 -5.93258,1.06255 z M 547.05316,274.285 q 0,-2.74493 -0.79692,-5.00285 -0.75264,-2.30219 -2.25792,-3.9403 -1.46101,-1.68237 -3.58611,-2.56783 -2.12511,-0.92973 -4.82576,-0.92973 -5.66694,0 -8.98742,3.32047 -3.2762,3.2762 -4.07311,9.12024 z m 6.37531,21.02967 q -1.46101,1.77092 -3.49757,3.09911 -2.03656,1.28392 -4.38302,2.12511 -2.3022,0.84119 -4.78149,1.23964 -2.47929,0.44273 -4.9143,0.44273 -4.64867,0 -8.58896,-1.54955 -3.89603,-1.59383 -6.77377,-4.60439 -2.83347,-3.05484 -4.4273,-7.52641 -1.59383,-4.47158 -1.59383,-10.27134 0,-4.69294 1.41674,-8.76605 1.46101,-4.07312 4.16166,-7.03941 2.70065,-3.01056 6.59668,-4.69294 3.89602,-1.72665 8.76605,-1.72665 4.02884,0 7.43786,1.37247 3.4533,1.32819 5.93258,3.89602 2.52357,2.52356 3.9403,6.28677 1.41674,3.71893 1.41674,8.50041 0,1.85947 -0.39846,2.47929 -0.39846,0.61982 -1.50528,0.61982 h -29.97282 q 0.13282,4.25021 1.1511,7.39359 1.06255,3.14339 2.92201,5.26849 1.85947,2.08083 4.4273,3.14338 2.56784,1.01828 5.75549,1.01828 2.96629,0 5.0914,-0.66409 2.16938,-0.70837 3.71893,-1.50528 1.54956,-0.79692 2.56783,-1.46101 1.06256,-0.70837 1.8152,-0.70837 0.974,0 1.50528,0.75264 z m 17.84199,-29.57436 q 2.1251,-4.60439 5.22421,-7.17222 3.09911,-2.61211 7.57069,-2.61211 1.41673,0 2.70065,0.30991 1.32819,0.30991 2.34647,0.97401 l -0.57555,5.8883 q -0.26564,1.10683 -1.32819,1.10683 -0.61982,0 -1.81519,-0.26564 -1.19537,-0.26564 -2.70066,-0.26564 -2.1251,0 -3.80747,0.61983 -1.63811,0.61982 -2.9663,1.85946 -1.28391,1.19537 -2.34646,3.01057 -1.01828,1.77092 -1.85947,4.07311 v 28.33472 h -7.92487 v -44.84855 h 4.51585 q 1.28392,0 1.77092,0.48701 0.487,0.487 0.66409,1.68237 z"
         id="text1"
         aria-label="Rampmaster"
         inkscape:export-filename="..\..\..\Escritorio\logov5.svg"
         inkscape:export-xdpi="90"
         inkscape:export-ydpi="90" />
    </a>
  </g>
</svg>
